<svg width="1440" height="120" viewBox="0 0 1440 120" fill="none" xmlns="http://www.w3.org/2000/svg">
  <defs>
    <linearGradient id="waveGradient" x1="0%" y1="0%" x2="100%" y2="0%">
      <stop offset="0%" stop-color="#3B82F6" stop-opacity="0.15" />
      <stop offset="50%" stop-color="#6366F1" stop-opacity="0.15" />
      <stop offset="100%" stop-color="#8B5CF6" stop-opacity="0.15" />
    </linearGradient>
  </defs>
  <path d="M0 0L48 8.875C96 17.75 192 35.5 288 44.375C384 53.25 480 53.25 576 48.8125C672 44.375 768 35.5 864 31.0625C960 26.625 1056 26.625 1152 31.0625C1248 35.5 1344 44.375 1392 48.8125L1440 53.25V120H1392C1344 120 1248 120 1152 120C1056 120 960 120 864 120C768 120 672 120 576 120C480 120 384 120 288 120C192 120 96 120 48 120H0V0Z" fill="url(#waveGradient)"/>
</svg> 