<svg height="32" viewBox="0.5 -0.2 1023 1024.1" width="32" xmlns="http://www.w3.org/2000/svg"><path d="m478.5.6c-2.2.2-9.2.9-15.5 1.4-145.3 13.1-281.4 91.5-367.2 212-48 67-78.7 143-90.3 223.5-4.1 28.1-4.6 36.4-4.6 74.5s.5 46.4 4.6 74.5c27.8 192.1 164.5 353.5 349.9 413.3 33.2 10.7 68.2 18 108 22.4 15.5 1.7 82.5 1.7 98 0 68.7-7.6 126.9-24.6 184.3-53.9 8.8-4.5 10.5-5.7 9.3-6.7-.8-.6-38.3-50.9-83.3-111.7l-81.8-110.5-102.5-151.7c-56.4-83.4-102.8-151.6-103.2-151.6-.4-.1-.8 67.3-1 149.6-.3 144.1-.4 149.9-2.2 153.3-2.6 4.9-7 8.3-12.8 9.9-3.2.9-33.4 1.2-140.4 1.1l-136.3-.1-7.8-2.9c-5.3-1.9-7.9-3.5-10.8-6.6-3.9-4.3-4.5-7.3-4.5-26.4V311.4h-.9c-.5 0-58.6-1.8-128.1-4.1l-127.1-4-7.8-2.9c-5.4-2-8.2-3.6-11-6.6-3.9-4.2-4.4-7.1-4.4-25.3 0-16.3.2-18.9 2-22.3 2.7-5 9.1-9.6 15.9-11.4 3.1-.8 50.3-2.7 127.6-5l122.8-3.5 36.9-52.6C183.2 91.5 214 47.8 215 46.4c4.7-7 16.5-12.1 27.6-11.9 6.5.1 9.5.8 15.7 3.9 4.5 2.3 8.4 5.1 10.2 7.6.8 1.1 42.5 69.4 92.6 151.9l91 150v-300.9c0-295.3 0-301 1.9-304.8 2.3-4.7 6.3-8.2 11.6-10.4 3.7-1.6 8.4-1.9 33.2-2.2 17.7-.2 31.7 0 34.9.6 7.7 1.4 13.3 5.1 16.3 10.7 1.6 3 1.7 20.3 1.9 311.8.1 170.3.4 312.4.6 316 .7 10.1 3.4 14.2 11.3 17.3 5.5 2.2 7.2 2.2 144.9 2.2 133.2 0 139.6-.1 144.5-1.9 7.1-2.6 9.5-4.8 11.6-11.1 1.7-5 1.9-16.9 1.9-141.9 0-136.4-.1-136.6-2.4-142-1.3-3-3.8-6.3-5.5-7.4-3.2-2-7.5-2.1-83.5-2.1h-80.2l55.5-82.5c98.5-146.7 97.6-145.5 107-148.3 10.5-3.1 27.4-.9 36.4 4.7 3.5 2.2 88.2 128 122.1 181.4l5.4 8.3 111.7 3.6c61.4 2 112.9 3.9 114.4 4.3 5.9 1.3 13 6.6 15.8 11.7 2.2 4.2 2.3 5.6 2.4 22.7 0 16.4-.1 18.8-2 23-2.7 5.9-6.5 9.3-13.3 11.9-3.8 1.5-13.3 1.7-131.1 2.5-70.6.5-132.9 1.2-138.5 1.5-11.9.7-12.4.9-19.8 7.7-4.2 3.9-7.9 8.1-8.2 9.4-.6 2.3 54 85.6 103.8 157.1 11.4 16.4 20.8 30.5 20.8 31.3 0 1.1-42.9 65.8-90.9 137.3-20.6 30.8-37.7 56.8-38 57.7-.5 1.6 35.6 54.3 89.3 130.1 11.4 16.2 25 35.5 30.1 42.9 5.1 7.4 9.6 13.7 9.9 14 .4.3 3.4-.5 6.9-1.7 106.2-35.9 198.3-104.5 265.2-197.3 35-48.5 60.5-102.1 75.6-159.5 8.4-32 12.6-63.4 13.2-98.5.3-18.3.1-38.3-.6-50-7.1-125.9-72.4-247-179.3-332.4-67.8-54.3-147.9-89.9-235.6-104.5-28.1-4.7-50.7-6.5-84-6.5-54.4 0-100.4 6.8-154.5 22.9-71.9 21.4-141.8 61.6-195.5 112.3C262 288 182.8 413.2 174.1 553.7c-1.7 27.2-1.7 72.3 0 99.5 3.6 59.1 19.4 122.4 44.1 176.5 11.1 24.2 34.9 65.1 36.5 62.7.1-.2-2-10.2-4.6-22.3-22.3-102.2-13.4-209 25.7-308.5 16.1-41.1 44.3-90.7 70.6-124.2l7.9-10.1-7.1-6.9c-80.4-78.3-125.6-180.3-125.7-283 0-32.8 3.3-59.5 11.1-91.7 10.5-43.2 25.7-80.1 48.7-118.8 9.7-16.3 32.2-48.2 32.2-45.5 0 .2-3 7.1-6.6 15.4-13.1 30-24.3 65.3-30.2 94.4-6.5 32.5-8.9 71.5-6.4 105.9 4.8 65.8 30.6 130.8 73.1 184.5 14.8 18.6 41.8 45.4 60.7 60.2l13.1 10.3 5.7-7c23.5-28.6 57.5-57.4 91.2-77.1 38.5-22.5 85.5-37.9 129.5-42.4 13.4-1.4 55.5-.5 69 1.4 65.2 9.3 123.3 40.2 168.8 89.9 86.3 94.3 97.5 237.2 26.2 338.6-57.6 82-163.1 129.1-261.7 116.7-78-9.9-146.5-51.8-192.4-118-14-20.1-25.4-42.9-33.7-67.5-10.1-30.1-15.4-66.7-14.1-97.4 3.2-80.8 45.7-154.8 113.7-198 28.5-18.1 61.5-30.2 96-35.2 10.3-1.6 51-1.6 62.1-.1 58.2 7.9 110.3 39.7 145.2 88.6 8.7 12.3 20.9 34.9 24.6 45.9 2.3 6.8 7.2 27.9 7.2 30.8 0 .8-1 .6-3.7-.9-15.5-8.2-40.7-17.8-60.8-23-36.2-9.4-77.4-10.6-117.4-3.4-95.6 17.2-177.7 89.1-208.6 182.2-12.1 36.4-15.5 81.8-9 122.3 14.4 90.2 80.4 167.2 170.6 198.8 29.9 10.5 77.5 16.9 107.5 14.6 68.4-5.5 115.6-18.3 167.2-45.2 23.1-12 59.5-36.9 82.8-56.5 49.2-41.3 93.1-100.2 123.3-164.8 17.8-38.2 32.9-88.2 39.2-130.5 8.1-54 6.8-123.7-3.2-175-16.4-83.6-51.7-159.4-105.2-225.9-14.9-18.5-50.2-53.5-69.3-68.8-31.7-25.3-74.8-51.3-108.4-65.3-67.6-28.2-137.2-42-212.9-42-27.2 0-43.5.9-70.5 3.9-90.4 10-179.3 43.5-253.4 95.6-19.4 13.6-62.5 49.9-75.9 63.9-3.4 3.6-6.6 6.5-7 6.5-.4 0-2.8-3.2-5.2-7-22.3-35.3-48.6-64.3-81.5-89.9-26.2-20.4-59.4-39.1-91.5-51.4-28.6-11-63.4-19.7-95.5-23.9-13.6-1.8-61.5-1.8-75 0-55.4 7.2-103.4 24.8-149.8 54.8-94.1 60.9-157.2 161.9-174.5 278.8-4.1 28.4-4.6 36.3-4.6 83.9 0 47.8.5 55.4 4.6 84.1 18.3 125.8 86.3 234 189.4 301.1 40.7 26.5 92.5 47.8 140.1 57.7 31.2 6.5 37.8 7.1 77.3 7.7 28.8.5 39.4.3 50.5-.9zm-30.1-175c-6.8-1.8-14-6.4-19.5-12.6-10.5-11.6-14-28.4-9.6-46.4 8.4-33.8 44.1-53.8 77.7-43.5 33 10.2 49.1 47.3 34.7 79.9-8.3 19.1-25.3 29.2-50.5 30-8.6.2-11.8-.1-12.5-.8-.8-.8-1.5-.7-2.5.2-1.8 1.8-5.1 2.7-9.5 2.6-1.8-.1-5.8-.7-8.3-1.4z"/></svg> 