<svg xmlns="http://www.w3.org/2000/svg" width="32" height="32" viewBox="0 0 25.6 25.6"><path d="M25.015 22.985c-.127.482-.652.906-1.08 1.138-.967.523-2.07.47-3.12.246.323-.06 1.137-.09 1.29-.43.083-.174-.027-.418-.11-.55-.136-.198-.392-.232-.6-.334-1.152-.568-1.78-1.576-2.577-2.525-1.37-1.75-2.737-3.502-4.11-5.25-.146-.186-.344-.477-.614-.475-.367 0-.553.417-.695.698-.853 1.646-1.746 3.874-3.45 4.578.09-1.138-.09-2.492.127-3.63.186-.986.367-2.15.428-3.152.042-.684-.01-1.363-.037-2.048-.028-.6.033-1.242-.254-1.767-.406-.746-1.42-.702-2.048-.27.254-1.055 1.514-1.097 2.43-.905.838.175 1.433.788 1.686 1.582.148.463.108.957.138 1.434.06.995-.073 1.995.04 2.988.033.29.102.586.313.805.21.216.504.236.782.24.696.013 1.365-.226 2.044-.367.432-.09.823-.062 1.028.348.148.297.06.633-.062.927-.213.498-.562.93-.84 1.396-.39.652-.774 1.308-1.17 1.96-.168.28-.347.587-.315.917.028.288.198.536.364.77.516.734 1.184 1.347 1.822 1.978 1.066 1.054 2.215 2.048 3.535 2.77.405.222.84.397 1.293.496.38.082.773.07 1.138-.07.55-.217 1.04-.662 1.12-1.26.038-.313-.074-.624-.222-.898-.167-.305-.372-.595-.568-.89-.125-.188-.244-.404-.182-.63.102-.366.632-.4.947-.412.457-.016 1.112.13 1.41-.326.19-.295.084-.696.016-1.004zm-18.438-5.598c-.145 1.124.034 2.284.144 3.402.034.346.09.686.107 1.034.008.165-.2.412-.13.486.43-.28.112-.677.16-1.006.14-.968.095-1.95.1-2.93.003-.53-.05-1.056-.108-1.582-.115-1.035-.303-2.058-.473-3.09-.066-.4-.07-.813-.096-1.22-.017-.272.01-.58-.08-.838-.062-.176-.178-.393-.373-.372-.247.026-.384.342-.5.534-.224.37-.448.738-.663 1.112-.204.35-.565.656-.57 1.075-.002.158.076.3.208.385.156.1.35.084.525.06.288-.045.57-.13.856-.18.2-.036.42-.096.61-.008.23.107.344.368.352.614.015.498-.02.995.074 1.484.026.132.06.286.202.333.17.056.347-.05.465-.156.162-.15.272-.355.338-.57.103-.324.11-.674.076-1.012-.066-.624-.214-1.24-.225-1.87-.006-.362.08-.774.43-.93.475-.214 1.03-.146 1.505.05.265.108.522.243.72.445.218.224.36.514.475.81.094.246.268.633.142.874-.134.26-.437-.052-.627-.084-.22-.036-.352-.16-.554-.047-.15.084-.244.275-.217.444.05.31.232.58.447.787.233.226.492.424.767.597.23.146.462.286.7.42.156.088.33.18.506.18.283 0 .534-.236.637-.49.106-.267.063-.567.072-.852.01-.354.044-.708.003-1.06-.11-.92-.405-1.798-.72-2.665-.088-.243-.144-.54-.064-.79.07-.216.23-.395.34-.596.244-.444.422-.94.482-1.444.045-.385.03-.777-.013-1.162-.038-.343-.053-.73-.273-1.01-.168-.216-.423-.35-.68-.44-.276-.097-.565-.154-.856-.177-.334-.026-.677.007-.998.1-.408.12-.775.354-1.108.602-.372.277-.764.595-1.228.705-.452.107-.85-.05-1.2-.33-.273-.22-.516-.47-.746-.733-.19-.217-.387-.5-.675-.576-.346-.092-.655.18-.86.44-.206.267-.352.577-.51.87-.23.427-.48.846-.65 1.293-.114.295-.208.6-.28.908-.06.257-.108.568.026.81.108.194.302.337.51.414.178.067.37.092.558.078.346-.025.684-.125 1.01-.232-.13.12-.246.256-.346.4-.152.22-.262.476-.3.744-.037.247.003.503.06.745.057.24.13.48.21.717.082.245.138.507.117.77-.022.306-.173.578-.308.845-.152.302-.312.6-.427.916-.21.576-.31 1.174-.48 1.76-.044.155-.144.374-.067.53.07.144.256.18.404.19.33.025.662-.035.98-.12.173-.046.336-.14.497-.22.122-.063.258-.086.392-.1.26-.03.556-.034.774.127.26.19.358.54.435.85.082.326.134.66.168.996z" fill="#336791"/></svg> 