<svg xmlns="http://www.w3.org/2000/svg" width="32" height="32" viewBox="0 0 24 24" fill="#07C160">
  <path d="M8.691 2C4.547 2 1 4.974 1 8.755c0 2.133 1.142 3.98 2.864 5.162l-.708 2.124 2.487-1.247c.89.247 1.838.381 2.822.381.253 0 .503-.012.75-.03-.157-.497-.243-1.022-.243-1.564C8.972 9.817 12.338 7 16.309 7c.252 0 .502.012.75.03C16.395 4.312 12.883 2 8.691 2zM6.136 6.281c-.567 0-1.028-.46-1.028-1.029 0-.567.46-1.027 1.028-1.027.567 0 1.027.46 1.027 1.027 0 .57-.46 1.029-1.027 1.029zm5.108 0c-.568 0-1.028-.46-1.028-1.029 0-.567.46-1.027 1.028-1.027.568 0 1.028.46 1.028 1.027 0 .57-.46 1.029-1.028 1.029z"/>
  <path d="M22.728 15.171c0-3.195-3.154-5.797-7.01-5.797s-7.008 2.602-7.008 5.797c0 3.196 3.152 5.797 7.008 5.797.778 0 1.527-.097 2.222-.274l2.032 1.02-.58-1.738c1.408-.967 2.336-2.373 2.336-3.977v-.828zm-9.297-1.025c-.471 0-.854-.384-.854-.855 0-.472.383-.855.854-.855.472 0 .855.383.855.855 0 .471-.383.855-.855.855zm4.573 0c-.471 0-.854-.384-.854-.855 0-.472.383-.855.854-.855.472 0 .855.383.855.855 0 .471-.383.855-.855.855z"/>
</svg> 